<svg id="tandev_copy_2" data-name="tandev copy 2" xmlns="http://www.w3.org/2000/svg" xmlns:xlink="http://www.w3.org/1999/xlink" viewBox="0 0 1059.58 252.4"><defs><style>.cls-1{fill:url(#New_Gradient_Swatch_3);}</style><linearGradient id="New_Gradient_Swatch_3" y1="126.2" x2="1059.58" y2="126.2" gradientUnits="userSpaceOnUse"><stop offset="0" stop-color="#0b132b"/><stop offset="1" stop-color="#2581b0"/></linearGradient></defs><title>tandev_gradient_v2</title><path class="cls-1" d="M107.6,216v35.6H90a87.64,87.64,0,0,1-34.8-7A90.71,90.71,0,0,1,7,196.4a87.64,87.64,0,0,1-7-34.8V0H35.6V108h72v35.6h-72v18a54.15,54.15,0,0,0,4.2,21.2,53.32,53.32,0,0,0,29,29A54.15,54.15,0,0,0,90,216ZM317,127a89.79,89.79,0,0,1,47.8-47.6,90.5,90.5,0,0,1,69.8,0,93.15,93.15,0,0,1,28.6,19.2A89.15,89.15,0,0,1,482.6,127a87.41,87.41,0,0,1,7,35v90H454V162a52.79,52.79,0,0,0-4.2-21,54.53,54.53,0,0,0-11.6-17.2A54.53,54.53,0,0,0,399.6,108a52.72,52.72,0,0,0-21,4.2A54.35,54.35,0,0,0,349.8,141a52.79,52.79,0,0,0-4.2,21v90H310V162A87.24,87.24,0,0,1,317,127ZM681.59,0V161.6a87.64,87.64,0,0,1-7,34.8,92.3,92.3,0,0,1-19.2,28.8,89.55,89.55,0,0,1-98.2,19.4A90.71,90.71,0,0,1,509,196.4a90.5,90.5,0,0,1,0-69.8,89,89,0,0,1,19.4-28.4A92.53,92.53,0,0,1,557.19,79,87.81,87.81,0,0,1,592,72h54V0ZM592,216a52.72,52.72,0,0,0,21-4.2,54.29,54.29,0,0,0,33-50.2v-54H592a54.08,54.08,0,0,0-50.2,33,52.79,52.79,0,0,0-4.2,21,54.53,54.53,0,0,0,15.8,38.6,53.6,53.6,0,0,0,17.4,11.6A54.19,54.19,0,0,0,592,216Zm242.8-27.6L860,213.6,847.59,226a89.66,89.66,0,0,1-127.2,0,85.06,85.06,0,0,1-19.6-29.8,93.14,93.14,0,0,1-6.4-33.8,91.66,91.66,0,0,1,6.4-33.6,85.59,85.59,0,0,1,19.6-29.6,87.62,87.62,0,0,1,29.8-19.8,89.85,89.85,0,0,1,67.6,0,87.72,87.72,0,0,1,29.8,19.8L860,111.6l-99.6,99.6a53.28,53.28,0,0,0,62-10.4ZM745.59,124q-16,16-16,38.4a52,52,0,0,0,5.6,23.6l14.6-14.6,20.8-20.8q11-11,21.2-21t15.8-15.6a53.69,53.69,0,0,0-32.2-5.2A51.46,51.46,0,0,0,745.59,124Zm314-52.8L966,251.2l-93.2-180h40q5.61,10.8,12.8,24.6t14.4,28q7.2,14.21,14.2,27.4T966,174q6-11.59,13.8-26.6t15.4-29.8q7.61-14.79,14-27.4t10-19Zm-767,55.4A90.33,90.33,0,0,0,245,79a90.5,90.5,0,0,0-69.8,0,92.3,92.3,0,0,0-28.8,19.2A88.83,88.83,0,0,0,127,126.6a90.5,90.5,0,0,0,0,69.8,90.71,90.71,0,0,0,48.2,48.2,87.64,87.64,0,0,0,34.8,7h89.6v-90A87.41,87.41,0,0,0,292.6,126.6ZM210,216a54.15,54.15,0,0,1-21.2-4.2,53.32,53.32,0,0,1-29-29,54.15,54.15,0,0,1-4.2-21.2,52.79,52.79,0,0,1,4.2-21,54.37,54.37,0,0,1,11.6-17.2A54.53,54.53,0,0,1,210,107.6a52.79,52.79,0,0,1,21,4.2,54.35,54.35,0,0,1,28.8,28.8,52.79,52.79,0,0,1,4.2,21v40.65l9,22.55L251,216Z"/></svg>